<svg width="25" height="24" viewBox="0 0 25 24" fill="none" xmlns="http://www.w3.org/2000/svg">
<path d="M14.7901 17.29L13.5001 18.59V13C13.5001 12.7348 13.3948 12.4804 13.2072 12.2929C13.0197 12.1054 12.7654 12 12.5001 12C12.2349 12 11.9806 12.1054 11.793 12.2929C11.6055 12.4804 11.5001 12.7348 11.5001 13V18.59L10.2101 17.29C10.1169 17.1968 10.0062 17.1228 9.88438 17.0724C9.76256 17.0219 9.63199 16.9959 9.50013 16.9959C9.36828 16.9959 9.23771 17.0219 9.11588 17.0724C8.99406 17.1228 8.88337 17.1968 8.79013 17.29C8.6969 17.3833 8.62293 17.4939 8.57247 17.6158C8.52201 17.7376 8.49604 17.8682 8.49604 18C8.49604 18.1319 8.52201 18.2624 8.57247 18.3843C8.62293 18.5061 8.6969 18.6168 8.79013 18.71L11.7901 21.71C11.8852 21.8011 11.9974 21.8724 12.1201 21.92C12.2398 21.9729 12.3693 22.0002 12.5001 22.0002C12.631 22.0002 12.7604 21.9729 12.8801 21.92C13.0029 21.8724 13.115 21.8011 13.2101 21.71L16.2101 18.71C16.3984 18.5217 16.5042 18.2663 16.5042 18C16.5042 17.7337 16.3984 17.4783 16.2101 17.29C16.0218 17.1017 15.7664 16.9959 15.5001 16.9959C15.2338 16.9959 14.9784 17.1017 14.7901 17.29ZM18.9201 6.22002C18.3091 4.81602 17.2546 3.65109 15.9182 2.90374C14.5818 2.15639 13.0372 1.86785 11.5211 2.08233C10.005 2.2968 8.60106 3.00247 7.52439 4.09119C6.44772 5.17991 5.75772 6.59163 5.56013 8.11002C4.60672 8.33834 3.77036 8.90885 3.20987 9.71321C2.64939 10.5176 2.40382 11.4997 2.5198 12.4732C2.63578 13.4467 3.10523 14.3437 3.839 14.9939C4.57277 15.644 5.51976 16.0021 6.50013 16C6.76535 16 7.0197 15.8947 7.20724 15.7071C7.39478 15.5196 7.50013 15.2652 7.50013 15C7.50013 14.7348 7.39478 14.4804 7.20724 14.2929C7.0197 14.1054 6.76535 14 6.50013 14C5.9697 14 5.46099 13.7893 5.08592 13.4142C4.71085 13.0392 4.50013 12.5304 4.50013 12C4.50013 11.4696 4.71085 10.9609 5.08592 10.5858C5.46099 10.2107 5.9697 10 6.50013 10C6.76535 10 7.0197 9.89466 7.20724 9.70712C7.39478 9.51959 7.50013 9.26523 7.50013 9.00002C7.50269 7.81729 7.92442 6.67377 8.6904 5.7726C9.45639 4.87143 10.517 4.27097 11.6839 4.07789C12.8507 3.88481 14.0483 4.11162 15.0637 4.71803C16.0791 5.32443 16.8467 6.27116 17.2301 7.39002C17.2873 7.56186 17.39 7.71495 17.5274 7.83295C17.6648 7.95095 17.8316 8.02943 18.0101 8.06002C18.6762 8.18589 19.28 8.53362 19.7232 9.04655C20.1663 9.55948 20.4227 10.2074 20.4505 10.8847C20.4784 11.5619 20.276 12.2287 19.8764 12.7762C19.4769 13.3238 18.9036 13.7199 18.2501 13.9C18.1228 13.9328 18.0031 13.9904 17.898 14.0695C17.7928 14.1486 17.7043 14.2476 17.6375 14.3609C17.5706 14.4742 17.5267 14.5995 17.5083 14.7298C17.4899 14.86 17.4973 14.9926 17.5301 15.12C17.563 15.2474 17.6206 15.3671 17.6996 15.4722C17.7787 15.5773 17.8777 15.6658 17.991 15.7327C18.1043 15.7995 18.2297 15.8434 18.3599 15.8619C18.4902 15.8803 18.6228 15.8728 18.7501 15.84C19.8025 15.5619 20.7354 14.948 21.4071 14.0915C22.0789 13.235 22.4527 12.1826 22.472 11.0943C22.4912 10.0059 22.1547 8.94106 21.5137 8.06134C20.8727 7.18161 19.962 6.53511 18.9201 6.22002Z" fill="#F9F9F9"/>
</svg>
