<svg width="20" height="20" viewBox="0 0 20 20" fill="none" xmlns="http://www.w3.org/2000/svg">
<path d="M18.2665 9.66671C16.5831 5.75837 13.4165 3.33337 9.99981 3.33337C6.58314 3.33337 3.41648 5.75837 1.73314 9.66671C1.68726 9.77185 1.66357 9.88532 1.66357 10C1.66357 10.1148 1.68726 10.2282 1.73314 10.3334C3.41648 14.2417 6.58314 16.6667 9.99981 16.6667C13.4165 16.6667 16.5831 14.2417 18.2665 10.3334C18.3124 10.2282 18.336 10.1148 18.336 10C18.336 9.88532 18.3124 9.77185 18.2665 9.66671ZM9.99981 15C7.34981 15 4.85814 13.0917 3.41648 10C4.85814 6.90837 7.34981 5.00004 9.99981 5.00004C12.6498 5.00004 15.1415 6.90837 16.5831 10C15.1415 13.0917 12.6498 15 9.99981 15ZM9.99981 6.66671C9.34054 6.66671 8.69607 6.8622 8.14791 7.22848C7.59975 7.59475 7.1725 8.11534 6.92021 8.72443C6.66792 9.33352 6.60191 10.0037 6.73053 10.6503C6.85914 11.2969 7.17661 11.8909 7.64279 12.3571C8.10896 12.8232 8.70291 13.1407 9.34951 13.2693C9.99611 13.3979 10.6663 13.3319 11.2754 13.0796C11.8845 12.8273 12.4051 12.4001 12.7714 11.8519C13.1376 11.3038 13.3331 10.6593 13.3331 10C13.3331 9.11598 12.982 8.26814 12.3568 7.64302C11.7317 7.0179 10.8839 6.66671 9.99981 6.66671ZM9.99981 11.6667C9.67018 11.6667 9.34794 11.569 9.07386 11.3858C8.79978 11.2027 8.58616 10.9424 8.46001 10.6378C8.33387 10.3333 8.30086 9.99819 8.36517 9.67489C8.42948 9.35159 8.58821 9.05462 8.8213 8.82153C9.05439 8.58844 9.35136 8.42971 9.67466 8.3654C9.99796 8.30109 10.3331 8.3341 10.6376 8.46024C10.9422 8.58639 11.2025 8.80001 11.3856 9.07409C11.5687 9.34817 11.6665 9.6704 11.6665 10C11.6665 10.4421 11.4909 10.866 11.1783 11.1786C10.8658 11.4911 10.4418 11.6667 9.99981 11.6667Z" fill="#888888"/>
</svg>
